# xmcd CD database file
#
# Track frame offsets:
#	150
#	26415
#	52297
#	69752
#	94702
#	119862
#	146560
#	166305
#	188592
#	210550
#	229990
#	257520
#	275015
#	303375
#
# Disc length: 4440 seconds
#
# Revision: 0
# Processed by: cddbd v1.5PL3 Copyright (c) Steve Scherf et al.
# Submitted via: CDex 1.50
#
DISCID=ca11560e
DTITLE=オムニバス - TRUE LOVE II -WINTER BEST SONGS-
DYEAR=2003
DGENRE=JPop
TTITLE0=globe - Can't Stop Fallin' in Love
TTITLE1=小柳ゆき - あなたのキスを数えましょう〜You were mine〜
TTITLE2=プリンセス プリンセス - DING DONG
TTITLE3=槇原敬之 - 北風〜君にとどきますように〜
TTITLE4=今井美樹 - PIECE OF MY WISH
TTITLE5=m-flo - come again
TTITLE6=Every Little Thing - UNSPEAKABLE
TTITLE7=カズン - 冬のファンタジー
TTITLE8=hitomi - IS IT YOU?
TTITLE9=BoA - 奇蹟
TTITLE10=MOON CHILD - Hallelujah in the snow
TTITLE11=F-BLOOD - SHOOTING STAR
TTITLE12=TRF - Silver and Gold dance
TTITLE13=データートラック
EXTD=YEAR: 2003
EXTT0=
EXTT1=
EXTT2=
EXTT3=
EXTT4=
EXTT5=
EXTT6=
EXTT7=
EXTT8=
EXTT9=
EXTT10=
EXTT11=
EXTT12=
EXTT13=
PLAYORDER=
